<?xml version='1.0' encoding='utf-8'?>
<!DOCTYPE svg PUBLIC '-//W3C//DTD SVG 1.1//EN' 'http://www.w3.org/Graphics/SVG/1.1/DTD/svg11.dtd'>
<svg version="1.1" xmlns="http://www.w3.org/2000/svg" viewBox="0 0 512 512" xmlns:xlink="http://www.w3.org/1999/xlink" enable-background="new 0 0 512 512">
  <g>
    <g>
      <path d="m441.6,150.1c-0.2-8.7-5.1-13.4-5.2-13.5-1.7-1.9-41.6-47.2-0.2-91.2 8.5-9 9.1-32.2-14.9-34.3h-271.1c-43.3,0-78.7,34.7-79.8,77.8 0,0.3-0.1,328.1-0.1,328.1 0,46.4 37.7,84.1 84.1,84.1h266.6c11.3,0 20.4-9.1 20.4-20.4v-330.5c0.2,0 0.2,0 0.2-0.1zm-291.4-98.3h233.5c-11.6,28.2-7.7,56 1.3,78h-234.8c-21.5,0-39-17.5-39-39 1.42109e-14-21.5 17.5-39 39-39zm4.4,408.4c-23.9,0-43.3-19.4-43.3-43.3v-256.4c11.5,6.5 24.8,10.2 39,10.2h250.5v289.5h-246.2z"/>
      <path d="m338.6,254.4h-165.2c-11.3,0-20.4,9.1-20.4,20.4 0,11.3 9.1,20.4 20.4,20.4h165.3c11.3,0 20.4-9.1 20.4-20.4 0-11.3-9.2-20.4-20.5-20.4z"/>
    </g>
  </g>
</svg>
